<?xml version="1.0" encoding="UTF-8" standalone="no"?>
<!-- Created with Inkscape (http://www.inkscape.org/) -->

<svg
   xmlns:dc="http://purl.org/dc/elements/1.1/"
   xmlns:cc="http://creativecommons.org/ns#"
   xmlns:rdf="http://www.w3.org/1999/02/22-rdf-syntax-ns#"
   xmlns:svg="http://www.w3.org/2000/svg"
   xmlns="http://www.w3.org/2000/svg"
   xmlns:xlink="http://www.w3.org/1999/xlink"
   xmlns:sodipodi="http://sodipodi.sourceforge.net/DTD/sodipodi-0.dtd"
   xmlns:inkscape="http://www.inkscape.org/namespaces/inkscape"
   width="64"
   height="64"
   id="svg4700"
   version="1.1"
   inkscape:version="0.91 r13725"
   viewBox="0 0 64 64"
   sodipodi:docname="icon.svg">
  <defs
     id="defs4702">
    <linearGradient
       inkscape:collect="always"
       id="linearGradient5385">
      <stop
         style="stop-color:#000000;stop-opacity:1;"
         offset="0"
         id="stop5387" />
      <stop
         style="stop-color:#000000;stop-opacity:0;"
         offset="1"
         id="stop5389" />
    </linearGradient>
    <inkscape:perspective
       sodipodi:type="inkscape:persp3d"
       inkscape:vp_x="0 : 32 : 1"
       inkscape:vp_y="0 : 1000 : 0"
       inkscape:vp_z="64 : 32 : 1"
       inkscape:persp3d-origin="32 : 21.333333 : 1"
       id="perspective5383" />
    <linearGradient
       inkscape:collect="always"
       xlink:href="#linearGradient5385"
       id="linearGradient5391"
       x1="5.2947693"
       y1="4.4950862"
       x2="17.873623"
       y2="17.073938"
       gradientUnits="userSpaceOnUse" />
  </defs>
  <sodipodi:namedview
     id="base"
     pagecolor="#ffffff"
     bordercolor="#666666"
     borderopacity="1.0"
     inkscape:pageopacity="0.0"
     inkscape:pageshadow="2"
     inkscape:zoom="3.8890873"
     inkscape:cx="-42.148863"
     inkscape:cy="41.828314"
     inkscape:current-layer="g5359"
     showgrid="true"
     inkscape:document-units="px"
     inkscape:grid-bbox="true"
     inkscape:window-width="1871"
     inkscape:window-height="1062"
     inkscape:window-x="1329"
     inkscape:window-y="18"
     inkscape:window-maximized="1" />
  <metadata
     id="metadata4705">
    <rdf:RDF>
      <cc:Work
         rdf:about="">
        <dc:format>image/svg+xml</dc:format>
        <dc:type
           rdf:resource="http://purl.org/dc/dcmitype/StillImage" />
        <dc:title></dc:title>
      </cc:Work>
    </rdf:RDF>
  </metadata>
  <g
     id="layer1"
     inkscape:label="Layer 1"
     inkscape:groupmode="layer">
    <circle
       style="fill:#3f51b5;fill-opacity:1;stroke:none;stroke-width:1.5;stroke-linejoin:round;stroke-miterlimit:4;stroke-dasharray:none;stroke-opacity:1"
       id="path5248"
       cx="32"
       cy="32"
       r="32" />
    <g
       style="fill:#000000"
       id="g5359"
       transform="scale(2.6666667,2.6666667)">
      <path
         id="path5351"
         d="M 0,0 24,0 24,24 0,24 Z"
         inkscape:connector-curvature="0"
         style="fill:none" />
      <path
         style="fill:url(#linearGradient5391);fill-rule:evenodd;stroke:none;stroke-width:0.375px;stroke-linecap:butt;stroke-linejoin:miter;stroke-opacity:1;fill-opacity:1;opacity:0.594"
         d="m 15.017984,6.1134124 9.606206,9.6062066 c -1.445266,7.340241 -5.416849,8.406645 -9.714683,8.364752 L 4.9417121,14.116576 C 0.14488701,6.5777688 8.6048038,0.82504834 15.017984,6.1134124 Z"
         id="path5381"
         inkscape:connector-curvature="0"
         sodipodi:nodetypes="ccccc" />
      <path
         id="path5349"
         d="m 15.5,14 -0.79,0 -0.28,-0.27 C 15.41,12.59 16,11.11 16,9.5 16,5.91 13.09,3 9.5,3 5.91,3 3,5.91 3,9.5 3,13.09 5.91,16 9.5,16 c 1.61,0 3.09,-0.59 4.23,-1.57 L 14,14.71 14,15.5 19,20.49 20.49,19 15.5,14 Z m -6,0 C 7.01,14 5,11.99 5,9.5 5,7.01 7.01,5 9.5,5 11.99,5 14,7.01 14,9.5 14,11.99 11.99,14 9.5,14 Z"
         inkscape:connector-curvature="0"
         style="fill:#ffffff" />
    </g>
    <g
       style="fill:#000000"
       id="g5375"
       transform="matrix(0.76893939,0,0,0.76893939,15.727272,16.272727)">
      <path
         id="path5365"
         d="M 0,0 24,0 24,24 0,24 Z"
         inkscape:connector-curvature="0"
         style="fill:none" />
      <path
         id="path5367"
         d="m 6.62,10.79 c 1.44,2.83 3.76,5.14 6.59,6.59 l 2.2,-2.2 c 0.27,-0.27 0.67,-0.36 1.02,-0.24 1.12,0.37 2.33,0.57 3.57,0.57 0.55,0 1,0.45 1,1 L 21,20 c 0,0.55 -0.45,1 -1,1 C 10.61,21 3,13.39 3,4 3,3.45 3.45,3 4,3 l 3.5,0 c 0.55,0 1,0.45 1,1 0,1.25 0.2,2.45 0.57,3.57 0.11,0.35 0.03,0.74 -0.25,1.02 l -2.2,2.2 z"
         inkscape:connector-curvature="0"
         style="fill:#ffffff" />
    </g>
  </g>
</svg>
